<svg width="505" height="317" viewBox="0 0 505 317" fill="none" xmlns="http://www.w3.org/2000/svg">
<rect width="505" height="317" fill="white"/>
<path d="M57.539 167.113C57.0489 167.367 56.858 167.971 57.1126 168.461C57.3672 168.951 57.9709 169.142 58.461 168.887L57.539 167.113ZM212.953 88.3015C213.12 87.7749 212.828 87.2131 212.302 87.0465L203.72 84.3328C203.194 84.1663 202.632 84.4582 202.465 84.9848C202.299 85.5114 202.591 86.0732 203.117 86.2398L210.745 88.6519L208.333 96.2796C208.166 96.8062 208.458 97.3681 208.985 97.5346C209.511 97.7011 210.073 97.4092 210.24 96.8827L212.953 88.3015ZM58.461 168.887L212.461 88.8874L211.539 87.1126L57.539 167.113L58.461 168.887Z" fill="black"/>
<path d="M162.326 167.261C161.918 167.634 161.889 168.266 162.261 168.674C162.634 169.082 163.266 169.111 163.674 168.739L162.326 167.261ZM163.674 168.739L243.674 95.7387L242.326 94.2613L162.326 167.261L163.674 168.739Z" fill="black"/>
<path d="M269.697 94.2834C269.302 93.8982 268.669 93.9067 268.283 94.3025C267.898 94.6983 267.907 95.3314 268.303 95.7166L269.697 94.2834ZM344.697 167.283L269.697 94.2834L268.303 95.7166L343.303 168.717L344.697 167.283Z" fill="black"/>
<path d="M302.471 87.1176C301.983 86.8577 301.378 87.0421 301.118 87.5294C300.858 88.0167 301.042 88.6225 301.529 88.8824L302.471 87.1176ZM452.291 168.957C452.82 168.796 453.117 168.237 452.957 167.709L450.336 159.099C450.175 158.57 449.617 158.272 449.088 158.433C448.56 158.594 448.262 159.153 448.423 159.681L450.752 167.334L443.099 169.664C442.57 169.825 442.272 170.383 442.433 170.912C442.594 171.44 443.153 171.738 443.681 171.577L452.291 168.957ZM301.529 88.8824L451.529 168.882L452.471 167.118L302.471 87.1176L301.529 88.8824Z" fill="black"/>
<path d="M243.369 227.114C243.019 227.114 242.718 226.988 242.467 226.737C242.216 226.486 242.091 226.186 242.091 225.835C242.091 225.485 242.216 225.184 242.467 224.933C242.718 224.682 243.019 224.557 243.369 224.557C243.719 224.557 244.02 224.682 244.271 224.933C244.522 225.184 244.647 225.485 244.647 225.835C244.647 226.067 244.588 226.28 244.47 226.474C244.356 226.669 244.202 226.825 244.008 226.943C243.819 227.057 243.606 227.114 243.369 227.114ZM254.502 227.114C254.151 227.114 253.851 226.988 253.6 226.737C253.349 226.486 253.223 226.186 253.223 225.835C253.223 225.485 253.349 225.184 253.6 224.933C253.851 224.682 254.151 224.557 254.502 224.557C254.852 224.557 255.153 224.682 255.404 224.933C255.655 225.184 255.78 225.485 255.78 225.835C255.78 226.067 255.721 226.28 255.603 226.474C255.489 226.669 255.335 226.825 255.141 226.943C254.952 227.057 254.739 227.114 254.502 227.114ZM265.635 227.114C265.284 227.114 264.984 226.988 264.733 226.737C264.482 226.486 264.356 226.186 264.356 225.835C264.356 225.485 264.482 225.184 264.733 224.933C264.984 224.682 265.284 224.557 265.635 224.557C265.985 224.557 266.286 224.682 266.537 224.933C266.788 225.184 266.913 225.485 266.913 225.835C266.913 226.067 266.854 226.28 266.735 226.474C266.622 226.669 266.468 226.825 266.274 226.943C266.084 227.057 265.871 227.114 265.635 227.114Z" fill="black"/>
<path d="M236.956 54.2447C234.991 53.2434 232.803 52.7243 230.578 52.7243C213.223 53.948 213.223 79.2018 230.578 80.4255H271.703C276.71 80.4626 281.53 78.6084 285.202 75.2338C297.402 64.5909 290.875 43.1938 274.818 41.1541C269.033 6.40702 218.859 19.6087 230.763 52.7243" stroke="black" stroke-width="3.75" stroke-miterlimit="10" stroke-linecap="round" stroke-linejoin="round"/>
<path d="M268.776 42.7858C270.704 41.8216 272.818 41.3025 274.969 41.2654" stroke="black" stroke-width="3.75" stroke-miterlimit="10" stroke-linecap="round" stroke-linejoin="round"/>
<path d="M31 181.25H62C66.2803 181.25 69.75 185.205 69.75 190.083V251.917C69.75 256.795 66.2803 260.75 62 260.75H31C26.7198 260.75 23.25 256.795 23.25 251.917V190.083C23.25 185.205 26.7198 181.25 31 181.25Z" stroke="black" stroke-width="3.75" stroke-linecap="round" stroke-linejoin="round"/>
<path d="M35 288.919C35 286.885 35.8021 285.057 37.4064 283.434C39.0106 281.811 40.7454 281 42.6108 281C43.6555 281 44.4763 281.224 45.0732 281.672C45.6701 282.119 45.9779 282.707 45.9966 283.434C45.9966 283.975 45.8193 284.432 45.4649 284.805C45.1105 285.179 44.6628 285.374 44.1218 285.393C43.7674 285.393 43.4876 285.3 43.2824 285.113C43.0772 284.927 42.9746 284.647 42.9746 284.274C42.9746 283.901 43.0772 283.584 43.2824 283.322C43.4876 283.061 43.6928 282.865 43.898 282.735C44.1032 282.604 44.2337 282.548 44.2897 282.567H44.3177C44.3177 282.53 44.2617 282.474 44.1498 282.399C44.0379 282.324 43.842 282.25 43.5622 282.175C43.2824 282.101 42.9653 282.063 42.6108 282.063C42.0512 282.063 41.5196 282.194 41.0159 282.455C40.6242 282.623 40.2231 282.912 39.8127 283.322C38.992 284.143 38.395 285.3 38.022 286.792C37.6489 288.284 37.453 289.366 37.4344 290.038C37.4344 290.896 37.6769 291.54 38.1619 291.969C38.5722 292.416 39.1132 292.64 39.7848 292.64H39.8967C41.9859 292.64 43.7114 291.847 45.0732 290.262C45.2411 290.075 45.353 289.982 45.409 289.982C45.4836 289.982 45.6048 290.066 45.7727 290.234C45.9406 290.402 46.0339 290.532 46.0525 290.625C46.0712 290.719 45.9872 290.859 45.8007 291.045C45.6141 291.232 45.3437 291.493 44.9892 291.829C44.6348 292.164 44.2151 292.444 43.7301 292.668C43.2451 292.892 42.6482 293.125 41.9393 293.368C41.2304 293.61 40.4843 293.713 39.7008 293.675C38.3018 293.675 37.1732 293.228 36.3151 292.332C35.457 291.437 35.0187 290.299 35 288.919Z" fill="black"/>
<path d="M48.0636 285.992C48.8021 284.924 49.811 284.39 51.0903 284.39C51.7233 284.39 52.3564 284.561 52.9894 284.904C53.6225 285.247 54.1368 285.853 54.5325 286.724C55.0204 287.819 55.2644 289.322 55.2644 291.234C55.2644 293.279 54.9809 294.841 54.4138 295.923C54.15 296.477 53.7873 296.919 53.3257 297.248C52.8641 297.578 52.4619 297.782 52.119 297.862C51.7761 297.941 51.4398 297.987 51.1101 298C50.7672 298 50.4243 297.96 50.0814 297.881C49.7385 297.802 49.3362 297.591 48.8746 297.248C48.413 296.905 48.0504 296.464 47.7866 295.923C47.2195 294.841 46.9359 293.279 46.9359 291.234C46.9359 288.94 47.3118 287.192 48.0636 285.992ZM52.5146 285.755C52.119 285.333 51.6508 285.122 51.1101 285.122C50.5562 285.122 50.0814 285.333 49.6857 285.755C49.356 286.097 49.1384 286.572 49.0329 287.179C48.9274 287.786 48.8746 289.052 48.8746 290.977C48.8746 293.061 48.9274 294.433 49.0329 295.092C49.1384 295.751 49.3758 296.272 49.7451 296.655C50.1143 297.05 50.5693 297.248 51.1101 297.248C51.6376 297.248 52.086 297.05 52.4553 296.655C52.8378 296.259 53.0751 295.705 53.1675 294.993C53.2598 294.281 53.3125 292.942 53.3257 290.977C53.3257 289.065 53.273 287.805 53.1675 287.199C53.062 286.592 52.8443 286.111 52.5146 285.755Z" fill="black"/>
<path d="M333 181.25H364C368.28 181.25 371.75 185.205 371.75 190.083V251.917C371.75 256.795 368.28 260.75 364 260.75H333C328.72 260.75 325.25 256.795 325.25 251.917V190.083C325.25 185.205 328.72 181.25 333 181.25Z" stroke="black" stroke-width="3.75" stroke-linecap="round" stroke-linejoin="round"/>
<path d="M141 181.25H172C176.28 181.25 179.75 185.205 179.75 190.083V251.917C179.75 256.795 176.28 260.75 172 260.75H141C136.72 260.75 133.25 256.795 133.25 251.917V190.083C133.25 185.205 136.72 181.25 141 181.25Z" stroke="black" stroke-width="3.75" stroke-linecap="round" stroke-linejoin="round"/>
<path d="M443 181.25H474C478.28 181.25 481.75 185.205 481.75 190.083V251.917C481.75 256.795 478.28 260.75 474 260.75H443C438.72 260.75 435.25 256.795 435.25 251.917V190.083C435.25 185.205 438.72 181.25 443 181.25Z" stroke="black" stroke-width="3.75" stroke-linecap="round" stroke-linejoin="round"/>
<path d="M446 289.021C446 286.962 446.813 285.11 448.438 283.466C450.063 281.822 451.82 281 453.71 281C454.768 281 455.599 281.227 456.204 281.68C456.808 282.134 457.12 282.729 457.139 283.466C457.139 284.014 456.96 284.477 456.601 284.855C456.242 285.233 455.788 285.431 455.24 285.45C454.881 285.45 454.598 285.356 454.39 285.167C454.182 284.978 454.078 284.694 454.078 284.316C454.078 283.938 454.182 283.617 454.39 283.353C454.598 283.088 454.806 282.89 455.013 282.757C455.221 282.625 455.353 282.568 455.41 282.587H455.439C455.439 282.549 455.382 282.493 455.268 282.417C455.155 282.342 454.957 282.266 454.673 282.19C454.39 282.115 454.069 282.077 453.71 282.077C453.143 282.077 452.604 282.209 452.094 282.474C451.697 282.644 451.291 282.937 450.875 283.353C450.044 284.184 449.439 285.356 449.061 286.867C448.683 288.379 448.485 289.475 448.466 290.155C448.466 291.024 448.712 291.676 449.203 292.111C449.619 292.564 450.167 292.791 450.847 292.791H450.96C453.077 292.791 454.824 291.988 456.204 290.382C456.374 290.193 456.487 290.098 456.544 290.098C456.62 290.098 456.742 290.183 456.912 290.353C457.082 290.524 457.177 290.656 457.196 290.75C457.215 290.845 457.13 290.986 456.941 291.175C456.752 291.364 456.478 291.629 456.119 291.969C455.76 292.309 455.335 292.593 454.843 292.819C454.352 293.046 453.747 293.282 453.029 293.528C452.311 293.774 451.555 293.878 450.762 293.84C449.345 293.84 448.201 293.386 447.332 292.479C446.463 291.572 446.019 290.42 446 289.021Z" fill="black"/>
<path d="M457.73 292.028C457.743 291.948 457.763 291.841 457.79 291.708C457.817 291.574 457.897 291.32 458.031 290.946C458.164 290.572 458.298 290.258 458.431 290.004C458.565 289.751 458.785 289.503 459.093 289.263C459.4 289.022 459.707 288.909 460.014 288.922C460.495 288.922 460.896 289.043 461.217 289.283C461.537 289.523 461.738 289.751 461.818 289.964C461.898 290.178 461.938 290.318 461.938 290.385C461.938 290.412 461.945 290.425 461.958 290.425L462.179 290.205C462.994 289.35 463.922 288.922 464.964 288.922C465.686 288.922 466.267 289.103 466.708 289.463C467.148 289.824 467.376 290.352 467.389 291.046C467.402 291.741 467.148 292.79 466.627 294.193C466.106 295.595 465.853 296.444 465.866 296.738C465.866 297.085 465.979 297.259 466.207 297.259C466.287 297.259 466.347 297.252 466.387 297.239C466.774 297.172 467.122 296.918 467.429 296.477C467.736 296.036 467.97 295.502 468.13 294.874C468.157 294.767 468.291 294.714 468.531 294.714C468.798 294.714 468.932 294.767 468.932 294.874C468.932 294.887 468.905 294.987 468.852 295.174C468.745 295.562 468.598 295.943 468.411 296.317C468.224 296.691 467.917 297.065 467.489 297.439C467.062 297.813 466.601 297.993 466.106 297.98C465.478 297.98 465.024 297.8 464.744 297.439C464.463 297.078 464.323 296.704 464.323 296.317C464.323 296.063 464.563 295.261 465.044 293.912C465.525 292.563 465.772 291.547 465.786 290.866C465.786 290.078 465.492 289.684 464.904 289.684H464.804C463.655 289.684 462.686 290.358 461.898 291.708L461.758 291.948L461.097 294.633C460.656 296.384 460.402 297.325 460.335 297.459C460.161 297.82 459.874 298 459.473 298C459.3 298 459.159 297.96 459.053 297.88C458.946 297.8 458.872 297.719 458.832 297.639C458.792 297.559 458.779 297.492 458.792 297.439C458.792 297.265 459.046 296.176 459.554 294.173C460.061 292.169 460.328 291.08 460.355 290.906C460.369 290.839 460.375 290.686 460.375 290.445C460.375 289.924 460.215 289.664 459.894 289.664C459.387 289.664 458.966 290.332 458.632 291.668C458.552 291.935 458.512 292.075 458.512 292.088C458.485 292.169 458.358 292.209 458.131 292.209H457.85C457.77 292.129 457.73 292.068 457.73 292.028Z" fill="black"/>
<path d="M396.202 93.4735C396.202 93.1179 396.363 92.7876 396.685 92.4827C397.006 92.1778 397.362 92.0169 397.752 92C398.056 92 398.336 92.1524 398.59 92.4573C398.844 92.7622 398.98 93.2449 398.996 93.9054C398.996 94.3966 398.836 95.3705 398.514 96.8271C398.26 97.7756 398.031 98.5547 397.828 99.1644C397.625 99.7742 397.328 100.46 396.939 101.222C396.549 101.984 396.083 102.56 395.541 102.95C394.999 103.339 394.39 103.534 393.712 103.534C392.967 103.534 392.306 103.399 391.73 103.128C391.155 102.857 390.74 102.493 390.486 102.035C390.469 102.052 390.443 102.086 390.409 102.137C389.715 103.068 388.868 103.534 387.869 103.534C387.428 103.534 387.005 103.483 386.598 103.382C386.192 103.28 385.794 103.119 385.404 102.899C385.015 102.679 384.701 102.349 384.464 101.908C384.227 101.468 384.109 100.934 384.109 100.308C384.109 99.3931 384.397 98.1567 384.972 96.5985C385.548 95.0402 385.845 94.0494 385.862 93.626C385.862 93.609 385.862 93.5921 385.862 93.5752C385.862 93.4227 385.862 93.3211 385.862 93.2703C385.862 93.2195 385.828 93.1602 385.76 93.0925C385.692 93.0247 385.599 92.9908 385.481 92.9908H385.379C384.989 92.9908 384.634 93.1517 384.312 93.4735C383.99 93.7953 383.736 94.1426 383.55 94.5152C383.363 94.8878 383.219 95.2435 383.118 95.5822C383.016 95.921 382.948 96.1073 382.915 96.1411C382.881 96.175 382.745 96.192 382.508 96.192H382.152C382.051 96.0903 382 96.0141 382 95.9633C382 95.8617 382.068 95.6246 382.203 95.2519C382.339 94.8793 382.534 94.4474 382.788 93.9563C383.042 93.4651 383.414 93.0247 383.905 92.6352C384.397 92.2456 384.947 92.0508 385.557 92.0508C386.285 92.0508 386.844 92.2625 387.234 92.686C387.623 93.1094 387.818 93.6006 387.818 94.1595C387.818 94.4644 387.538 95.379 386.98 96.9033C386.421 98.4277 386.141 99.6048 386.141 100.435C386.141 101.214 386.319 101.764 386.675 102.086C387.03 102.408 387.479 102.577 388.021 102.594C388.749 102.594 389.393 102.078 389.952 101.044L390.079 100.816V100.231C390.079 100.181 390.079 100.104 390.079 100.003C390.079 99.9012 390.088 99.8335 390.104 99.7996C390.121 99.7657 390.13 99.7064 390.13 99.6217C390.13 99.5371 390.138 99.4608 390.155 99.3931C390.172 99.3253 390.198 99.2152 390.231 99.0628C390.265 98.9104 390.291 98.7664 390.308 98.6309C390.325 98.4954 390.375 98.2922 390.46 98.0212C390.545 97.7502 390.613 97.4792 390.663 97.2082C390.714 96.9372 390.807 96.573 390.943 96.1157C391.434 94.1849 391.713 93.1433 391.781 92.9908C392.001 92.5335 392.366 92.3049 392.874 92.3049C393.195 92.3049 393.416 92.3896 393.534 92.5589C393.653 92.7283 393.721 92.8892 393.737 93.0416C393.737 93.2618 393.492 94.3458 393.001 96.2936C392.51 98.2414 392.239 99.3592 392.188 99.6471C392.154 99.8335 392.137 100.13 392.137 100.536V100.714C392.137 100.968 392.162 101.214 392.213 101.451C392.264 101.688 392.425 101.934 392.696 102.188C392.967 102.442 393.348 102.577 393.839 102.594C395.042 102.594 395.999 101.561 396.71 99.4947C396.862 99.1052 397.032 98.5547 397.218 97.8433C397.404 97.132 397.506 96.6239 397.523 96.319C397.523 95.7601 397.413 95.3197 397.193 94.9979C396.972 94.6761 396.752 94.4051 396.532 94.1849C396.312 93.9647 396.202 93.7276 396.202 93.4735Z" fill="black"/>
<path d="M402.962 96.2885C402.962 96.0011 403.076 95.7497 403.303 95.5341C403.531 95.3186 403.794 95.2048 404.094 95.1928C404.309 95.1928 404.489 95.2647 404.632 95.4084C404.776 95.5521 404.854 95.7317 404.866 95.9472C404.866 96.2227 404.746 96.4741 404.507 96.7016C404.267 96.9292 404.004 97.0489 403.716 97.0609C403.537 97.0609 403.369 97.001 403.213 96.8813C403.058 96.7615 402.974 96.5639 402.962 96.2885ZM400.034 101.911C400.034 101.815 400.088 101.629 400.196 101.354C400.304 101.078 400.447 100.773 400.627 100.438C400.807 100.102 401.07 99.7971 401.417 99.5217C401.765 99.2462 402.124 99.1145 402.495 99.1265C402.962 99.1265 403.351 99.2642 403.663 99.5396C403.974 99.815 404.135 100.186 404.147 100.653C404.147 100.857 404.064 101.192 403.896 101.659C403.728 102.126 403.489 102.755 403.178 103.545C402.866 104.335 402.615 105.012 402.423 105.575C402.363 105.838 402.333 106.03 402.333 106.15C402.333 106.449 402.435 106.599 402.639 106.599C402.746 106.599 402.86 106.581 402.98 106.545C403.1 106.509 403.237 106.425 403.393 106.293C403.549 106.162 403.71 105.952 403.878 105.665C404.046 105.377 404.195 105.024 404.327 104.605C404.363 104.461 404.393 104.377 404.417 104.353C404.441 104.329 404.543 104.317 404.722 104.317C404.962 104.317 405.081 104.377 405.081 104.497C405.081 104.593 405.028 104.779 404.92 105.054C404.812 105.329 404.662 105.635 404.471 105.97C404.279 106.305 404.01 106.605 403.663 106.868C403.315 107.132 402.944 107.263 402.549 107.263C402.166 107.263 401.812 107.137 401.489 106.886C401.166 106.635 400.998 106.251 400.986 105.736C400.986 105.533 401.016 105.341 401.076 105.162C401.136 104.982 401.393 104.3 401.848 103.114C402.303 101.905 402.567 101.18 402.639 100.941C402.711 100.701 402.752 100.468 402.764 100.24C402.764 99.9527 402.663 99.8091 402.459 99.8091H402.423C402.064 99.8091 401.735 100.007 401.435 100.402C401.136 100.797 400.908 101.3 400.753 101.911C400.741 101.923 400.729 101.941 400.717 101.964C400.705 101.988 400.699 102.006 400.699 102.018C400.699 102.03 400.687 102.042 400.663 102.054C400.639 102.066 400.621 102.072 400.609 102.072C400.597 102.072 400.573 102.072 400.537 102.072C400.501 102.072 400.453 102.072 400.393 102.072H400.142C400.07 102 400.034 101.947 400.034 101.911Z" fill="black"/>
<path d="M406.86 102.809C406.86 102.809 406.86 102.731 406.86 102.575C406.86 102.419 406.944 102.3 407.111 102.216H412.482V99.5216L412.5 96.8274C412.619 96.6717 412.733 96.5938 412.841 96.5938C412.997 96.5938 413.116 96.6837 413.2 96.8633V102.216H418.553C418.733 102.312 418.822 102.431 418.822 102.575C418.822 102.719 418.733 102.839 418.553 102.934H413.2V108.287C413.104 108.455 412.997 108.538 412.877 108.538H412.841H412.805C412.661 108.538 412.554 108.455 412.482 108.287V102.934H407.111C406.944 102.851 406.86 102.731 406.86 102.575V102.809Z" fill="black"/>
<path d="M423.654 96.6837L423.421 96.7735C423.253 96.8334 423.013 96.8932 422.702 96.9531C422.391 97.013 422.043 97.0549 421.66 97.0788H421.319V96.2526H421.66C422.223 96.2286 422.744 96.1388 423.223 95.9832C423.702 95.8275 424.037 95.6838 424.229 95.5521C424.42 95.4204 424.588 95.2886 424.732 95.1569C424.756 95.121 424.828 95.103 424.947 95.103C425.055 95.103 425.157 95.139 425.253 95.2108V100.581L425.271 105.97C425.354 106.054 425.426 106.108 425.486 106.132C425.546 106.156 425.69 106.18 425.917 106.203C426.145 106.227 426.516 106.239 427.031 106.239H427.498V107.066H427.3C427.049 107.03 426.097 107.012 424.444 107.012C422.816 107.012 421.876 107.03 421.624 107.066H421.409V106.239H421.876C422.139 106.239 422.367 106.239 422.558 106.239C422.75 106.239 422.9 106.233 423.007 106.221C423.115 106.209 423.211 106.191 423.295 106.168C423.379 106.144 423.427 106.132 423.439 106.132C423.451 106.132 423.486 106.102 423.546 106.042C423.606 105.982 423.642 105.958 423.654 105.97V96.6837Z" fill="black"/>
<path d="M28.9209 85.7819C28.9209 85.7337 28.9611 85.6775 29.0413 85.6133H46.6192C46.6994 85.6775 46.7396 85.7337 46.7396 85.7819C46.7396 85.814 45.3831 88.6232 42.6702 94.2096C39.9572 99.796 38.5687 102.621 38.5045 102.685C38.4242 102.798 38.1995 102.854 37.8302 102.854C37.461 102.854 37.2363 102.798 37.156 102.685C37.1079 102.621 35.7273 99.796 33.0144 94.2096C30.3015 88.6232 28.937 85.814 28.9209 85.7819ZM44.5965 87.7082C44.5965 87.6922 42.5739 87.6841 38.5285 87.6841C34.4832 87.6841 32.4606 87.6922 32.4606 87.7082C32.4927 87.7885 33.504 89.8753 35.4946 93.9688C37.4851 98.0623 38.4964 100.117 38.5285 100.133L44.5965 87.7082Z" fill="black"/>
<path d="M57.4789 103.986C57.4789 103.456 57.4869 103.055 57.503 102.782C57.519 102.509 57.5351 102.356 57.5511 102.324V102.228L57.19 102.324C56.4515 102.501 55.7773 102.589 55.1673 102.589C53.6423 102.589 52.3179 102.132 51.1942 101.217C50.0705 100.302 49.3722 98.9693 49.0993 97.2195C49.0833 97.0911 49.0753 96.7459 49.0753 96.1841C49.0753 94.5467 49.4605 92.9896 50.2311 91.5127C51.0016 90.0359 52.037 88.7276 53.3373 87.5878C55.3278 85.9344 57.3264 85.1077 59.333 85.1077C59.943 85.1077 60.3283 85.1157 60.4888 85.1317C62.0459 85.3565 63.2981 86.0467 64.2452 87.2025C65.1923 88.3583 65.6739 89.8192 65.6899 91.585C65.6899 94.4745 64.502 97.1071 62.1262 99.483C61.1149 100.446 60.0634 101.177 58.9718 101.674L58.5625 101.867V101.987C58.5625 102.003 58.6026 102.22 58.6829 102.637C58.7631 103.055 58.9317 103.392 59.1885 103.649C59.4454 103.906 59.8146 104.034 60.2962 104.034C60.858 104.034 61.3958 103.857 61.9095 103.504C62.4232 103.151 62.7603 102.694 62.9208 102.132C63.0171 101.907 63.1215 101.795 63.2338 101.795C63.3783 101.795 63.4666 101.867 63.4987 102.011C63.4987 102.14 63.4185 102.429 63.2579 102.878C63.0974 103.328 62.8727 103.857 62.5837 104.467C62.2948 105.077 61.8613 105.599 61.2834 106.033C60.7055 106.466 60.0955 106.699 59.4534 106.731C58.1371 106.731 57.4789 105.872 57.4789 104.154V103.986ZM63.1857 90.7904C63.1857 89.9074 63.0653 89.1369 62.8245 88.4787C62.5837 87.8206 62.2546 87.331 61.8373 87.0099C61.4199 86.6889 61.0186 86.4481 60.6333 86.2875C60.248 86.127 59.8226 86.0467 59.3571 86.0467C58.5866 86.0467 57.8 86.2474 56.9973 86.6487C55.3599 87.4353 54.0436 88.848 53.0483 90.8867C52.0531 92.9254 51.5554 94.9159 51.5554 96.8583C51.5554 98.5599 51.9888 99.8201 52.8557 100.639C53.241 100.976 53.4737 101.144 53.554 101.144V100.952C53.554 100.31 53.8189 99.7157 54.3486 99.1699C54.8784 98.6241 55.5044 98.3432 56.2268 98.3272C56.6281 98.3272 56.9732 98.4154 57.2622 98.592C57.5511 98.7686 57.7679 99.0094 57.9123 99.3144C58.0568 99.6194 58.1531 99.8762 58.2013 100.085C58.2494 100.294 58.2976 100.51 58.3458 100.735L58.6588 100.518C59.6862 99.812 60.5611 98.8408 61.2834 97.6048C62.0058 96.3687 62.5034 95.1728 62.7763 94.017C63.0492 92.8612 63.1857 91.7856 63.1857 90.7904ZM55.4322 101.626C56.2027 101.626 56.9251 101.457 57.5993 101.12L57.5752 100.88C57.511 99.9966 57.214 99.4669 56.6843 99.2903C56.4917 99.2582 56.3392 99.2422 56.2268 99.2422C56.1786 99.2422 56.1305 99.2422 56.0823 99.2422C56.0342 99.2422 56.0021 99.2341 55.986 99.2181C55.6649 99.2181 55.3359 99.3786 54.9987 99.6997C54.6616 100.021 54.4851 100.39 54.469 100.807C54.469 101.353 54.7901 101.626 55.4322 101.626Z" fill="black"/>
<path d="M69.1814 96.0396C69.1814 94.932 69.2617 93.8805 69.4222 92.8852C69.5827 91.89 69.7673 91.0311 69.976 90.3088C70.1847 89.5864 70.4817 88.8801 70.867 88.1898C71.2522 87.4995 71.5572 86.9617 71.782 86.5765C72.0067 86.1912 72.3438 85.7738 72.7933 85.3244C73.2428 84.8749 73.5076 84.602 73.5879 84.5057C73.6682 84.4094 73.8688 84.2408 74.1899 84H74.5029H74.5992C74.824 84 74.9363 84.0722 74.9363 84.2167C74.9363 84.2649 74.7999 84.4334 74.527 84.7224C74.2541 85.0113 73.925 85.4367 73.5398 85.9986C73.1545 86.5604 72.7612 87.2507 72.3599 88.0694C71.9586 88.8881 71.6214 89.9957 71.3485 91.3923C71.0756 92.7889 70.9392 94.338 70.9392 96.0396C70.9392 97.7412 71.0756 99.2823 71.3485 100.663C71.6214 102.043 71.9505 103.159 72.3358 104.01C72.7211 104.861 73.1144 105.551 73.5157 106.081C73.917 106.61 74.2541 107.036 74.527 107.357C74.7999 107.678 74.9363 107.846 74.9363 107.863C74.9363 108.007 74.816 108.079 74.5752 108.079H74.5029H74.1899L73.5157 107.501C72.0067 106.137 70.9071 104.435 70.2168 102.397C69.5265 100.358 69.1814 98.2389 69.1814 96.0396Z" fill="black"/>
<path d="M90.2507 92.7889C90.2507 92.4518 90.4032 92.1388 90.7082 91.8498C91.0133 91.5609 91.3504 91.4084 91.7196 91.3923C92.0085 91.3923 92.2734 91.5368 92.5142 91.8257C92.755 92.1147 92.8834 92.5722 92.8995 93.1983C92.8995 93.6638 92.747 94.5868 92.442 95.9674C92.2012 96.8663 91.9844 97.6048 91.7918 98.1827C91.5992 98.7606 91.3183 99.4107 90.949 100.133C90.5798 100.855 90.1384 101.401 89.6247 101.77C89.111 102.14 88.5331 102.324 87.891 102.324C87.1847 102.324 86.5586 102.196 86.0128 101.939C85.467 101.682 85.0737 101.337 84.8329 100.904C84.8169 100.92 84.7928 100.952 84.7607 101C84.1025 101.883 83.2999 102.324 82.3528 102.324C81.9354 102.324 81.5341 102.276 81.1488 102.18C80.7635 102.084 80.3863 101.931 80.0171 101.722C79.6479 101.514 79.3509 101.201 79.1261 100.783C78.9014 100.366 78.789 99.8602 78.789 99.2662C78.789 98.3994 79.0619 97.2275 79.6077 95.7507C80.1535 94.2738 80.4344 93.3347 80.4505 92.9334C80.4505 92.9173 80.4505 92.9013 80.4505 92.8852C80.4505 92.7408 80.4505 92.6444 80.4505 92.5963C80.4505 92.5481 80.4184 92.4919 80.3542 92.4277C80.29 92.3635 80.2017 92.3314 80.0893 92.3314H79.993C79.6238 92.3314 79.2867 92.4839 78.9817 92.7889C78.6767 93.0939 78.4359 93.423 78.2593 93.7762C78.0827 94.1293 77.9463 94.4664 77.8499 94.7875C77.7536 95.1086 77.6894 95.2851 77.6573 95.3172C77.6252 95.3493 77.4968 95.3654 77.272 95.3654H76.9349C76.8386 95.2691 76.7905 95.1968 76.7905 95.1487C76.7905 95.0524 76.8547 94.8276 76.9831 94.4745C77.1115 94.1213 77.2961 93.712 77.5369 93.2464C77.7777 92.7809 78.1309 92.3635 78.5964 91.9943C79.0619 91.6251 79.5836 91.4405 80.1615 91.4405C80.8518 91.4405 81.3816 91.6411 81.7508 92.0425C82.12 92.4438 82.3046 92.9093 82.3046 93.4391C82.3046 93.728 82.0397 94.5949 81.51 96.0396C80.9802 97.4844 80.7154 98.6 80.7154 99.3866C80.7154 100.125 80.8839 100.647 81.221 100.952C81.5581 101.257 81.9835 101.417 82.4972 101.433C83.1875 101.433 83.7975 100.944 84.3273 99.9645L84.4476 99.7478V99.194C84.4476 99.1458 84.4476 99.0736 84.4476 98.9773C84.4476 98.881 84.4557 98.8168 84.4717 98.7846C84.4878 98.7525 84.4958 98.6964 84.4958 98.6161C84.4958 98.5358 84.5038 98.4636 84.5199 98.3994C84.5359 98.3352 84.56 98.2308 84.5921 98.0863C84.6242 97.9419 84.6483 97.8054 84.6644 97.677C84.6804 97.5486 84.7286 97.3559 84.8088 97.0991C84.8891 96.8423 84.9533 96.5854 85.0015 96.3286C85.0496 96.0717 85.1379 95.7266 85.2663 95.2932C85.7319 93.4631 85.9967 92.4759 86.061 92.3314C86.2696 91.898 86.6148 91.6813 87.0964 91.6813C87.4014 91.6813 87.6101 91.7615 87.7224 91.9221C87.8348 92.0826 87.899 92.2351 87.9151 92.3796C87.9151 92.5883 87.6823 93.6156 87.2168 95.4617C86.7512 97.3078 86.4944 98.3673 86.4462 98.6402C86.4141 98.8168 86.3981 99.0977 86.3981 99.4829V99.6515C86.3981 99.8923 86.4221 100.125 86.4703 100.35C86.5185 100.575 86.671 100.807 86.9278 101.048C87.1847 101.289 87.5458 101.417 88.0114 101.433C89.1511 101.433 90.0581 100.454 90.7323 98.4957C90.8768 98.1265 91.0373 97.6048 91.2139 96.9305C91.3905 96.2563 91.4868 95.7747 91.5029 95.4858C91.5029 94.956 91.3985 94.5387 91.1898 94.2337C90.9811 93.9287 90.7725 93.6718 90.5638 93.4631C90.3551 93.2544 90.2507 93.0297 90.2507 92.7889Z" fill="black"/>
<path d="M96.6579 95.4569C96.6579 95.1845 96.7658 94.9462 96.9814 94.7419C97.197 94.5376 97.4467 94.4298 97.7305 94.4184C97.9347 94.4184 98.105 94.4865 98.2412 94.6227C98.3774 94.7589 98.4511 94.9292 98.4625 95.1334C98.4625 95.3945 98.349 95.6328 98.122 95.8485C97.895 96.0641 97.6453 96.1776 97.373 96.1889C97.2027 96.1889 97.0438 96.1322 96.8963 96.0187C96.7487 95.9052 96.6693 95.7179 96.6579 95.4569ZM93.883 100.785C93.883 100.695 93.9341 100.519 94.0362 100.258C94.1384 99.9966 94.2746 99.7072 94.4448 99.3895C94.6151 99.0717 94.8647 98.7823 95.1939 98.5212C95.523 98.2602 95.8635 98.1354 96.2153 98.1467C96.6579 98.1467 97.0268 98.2772 97.3219 98.5383C97.617 98.7993 97.7702 99.1511 97.7815 99.5937C97.7815 99.7867 97.7021 100.104 97.5432 100.547C97.3843 100.99 97.1573 101.586 96.8622 102.335C96.5671 103.084 96.3288 103.725 96.1472 104.258C96.0905 104.508 96.0621 104.69 96.0621 104.803C96.0621 105.087 96.1586 105.229 96.3515 105.229C96.4537 105.229 96.5615 105.212 96.675 105.178C96.7885 105.144 96.919 105.064 97.0665 104.939C97.2141 104.814 97.3673 104.616 97.5262 104.343C97.6851 104.071 97.8269 103.736 97.9518 103.339C97.9858 103.203 98.0142 103.123 98.0369 103.101C98.0596 103.078 98.1561 103.067 98.3263 103.067C98.5533 103.067 98.6668 103.123 98.6668 103.237C98.6668 103.328 98.6157 103.504 98.5136 103.765C98.4114 104.026 98.2695 104.315 98.088 104.633C97.9064 104.951 97.651 105.234 97.3219 105.484C96.9927 105.734 96.6409 105.859 96.2664 105.859C95.9032 105.859 95.5684 105.739 95.262 105.501C94.9555 105.263 94.7966 104.9 94.7853 104.412C94.7853 104.219 94.8137 104.037 94.8704 103.867C94.9272 103.697 95.1712 103.05 95.6025 101.926C96.0337 100.78 96.2834 100.093 96.3515 99.8661C96.4196 99.6391 96.4593 99.4178 96.4707 99.2022C96.4707 98.9298 96.3742 98.7936 96.1813 98.7936H96.1472C95.8067 98.7936 95.4946 98.9809 95.2109 99.3554C94.9272 99.7299 94.7115 100.207 94.564 100.785C94.5526 100.797 94.5413 100.814 94.5299 100.836C94.5186 100.859 94.5129 100.876 94.5129 100.888C94.5129 100.899 94.5016 100.91 94.4789 100.922C94.4562 100.933 94.4391 100.939 94.4278 100.939C94.4164 100.939 94.3937 100.939 94.3597 100.939C94.3257 100.939 94.2803 100.939 94.2235 100.939H93.9852C93.9171 100.871 93.883 100.819 93.883 100.785Z" fill="black"/>
<path d="M102.05 84.0241L102.146 84C102.226 84 102.306 84 102.387 84H102.676L103.35 84.5779C104.859 85.9424 105.958 87.644 106.649 89.6827C107.339 91.7214 107.684 93.8404 107.684 96.0396C107.684 97.1312 107.604 98.1827 107.443 99.194C107.283 100.205 107.098 101.064 106.889 101.77C106.681 102.477 106.384 103.183 105.999 103.889C105.613 104.596 105.308 105.134 105.084 105.503C104.859 105.872 104.53 106.281 104.096 106.731C103.663 107.18 103.406 107.445 103.326 107.525C103.246 107.606 103.061 107.758 102.772 107.983C102.724 108.031 102.692 108.063 102.676 108.079H102.387C102.258 108.079 102.17 108.079 102.122 108.079C102.074 108.079 102.034 108.055 102.001 108.007C101.969 107.959 101.945 107.887 101.929 107.79C101.945 107.774 102.034 107.67 102.194 107.477C104.682 104.893 105.926 101.08 105.926 96.0396C105.926 90.999 104.682 87.1865 102.194 84.602C102.034 84.4094 101.945 84.305 101.929 84.289C101.929 84.1605 101.969 84.0722 102.05 84.0241Z" fill="black"/>
<path d="M111.85 101.217C111.85 101.217 111.85 101.016 111.85 100.615C111.85 100.213 111.978 99.8682 112.235 99.5793C112.492 99.2903 112.837 99.1458 113.27 99.1458C113.72 99.1458 114.121 99.3465 114.474 99.7478C114.828 100.149 115.012 100.855 115.028 101.867C115.028 102.429 114.956 102.974 114.812 103.504C114.667 104.034 114.499 104.491 114.306 104.877C114.113 105.262 113.905 105.591 113.68 105.864C113.455 106.137 113.262 106.354 113.102 106.514C112.941 106.675 112.837 106.747 112.789 106.731C112.725 106.731 112.62 106.659 112.476 106.514C112.331 106.37 112.259 106.265 112.259 106.201C112.259 106.137 112.347 106.008 112.524 105.816C112.701 105.623 112.901 105.382 113.126 105.093C113.351 104.804 113.559 104.403 113.752 103.889C113.945 103.376 114.073 102.79 114.137 102.132V101.843L114.113 101.867C114.081 101.883 114.041 101.899 113.993 101.915C113.945 101.931 113.897 101.955 113.848 101.987C113.8 102.019 113.728 102.035 113.632 102.035C113.535 102.035 113.439 102.043 113.343 102.059C112.909 102.059 112.556 101.923 112.283 101.65L111.85 101.217Z" fill="black"/>
<path d="M140.663 92.7889C140.663 92.4518 140.816 92.1388 141.121 91.8498C141.426 91.5609 141.763 91.4084 142.132 91.3923C142.421 91.3923 142.686 91.5368 142.926 91.8257C143.167 92.1147 143.296 92.5722 143.312 93.1983C143.312 93.6638 143.159 94.5868 142.854 95.9674C142.613 96.8663 142.397 97.6048 142.204 98.1827C142.011 98.7606 141.731 99.4107 141.361 100.133C140.992 100.855 140.551 101.401 140.037 101.77C139.523 102.14 138.945 102.324 138.303 102.324C137.597 102.324 136.971 102.196 136.425 101.939C135.879 101.682 135.486 101.337 135.245 100.904C135.229 100.92 135.205 100.952 135.173 101C134.515 101.883 133.712 102.324 132.765 102.324C132.348 102.324 131.946 102.276 131.561 102.18C131.176 102.084 130.799 101.931 130.429 101.722C130.06 101.514 129.763 101.201 129.538 100.783C129.314 100.366 129.201 99.8602 129.201 99.2662C129.201 98.3994 129.474 97.2275 130.02 95.7507C130.566 94.2738 130.847 93.3347 130.863 92.9334C130.863 92.9173 130.863 92.9013 130.863 92.8852C130.863 92.7408 130.863 92.6444 130.863 92.5963C130.863 92.5481 130.831 92.4919 130.766 92.4277C130.702 92.3635 130.614 92.3314 130.502 92.3314H130.405C130.036 92.3314 129.699 92.4839 129.394 92.7889C129.089 93.0939 128.848 93.423 128.672 93.7762C128.495 94.1293 128.359 94.4664 128.262 94.7875C128.166 95.1086 128.102 95.2851 128.07 95.3172C128.037 95.3493 127.909 95.3654 127.684 95.3654H127.347C127.251 95.2691 127.203 95.1968 127.203 95.1487C127.203 95.0524 127.267 94.8276 127.395 94.4745C127.524 94.1213 127.708 93.712 127.949 93.2464C128.19 92.7809 128.543 92.3635 129.009 91.9943C129.474 91.6251 129.996 91.4405 130.574 91.4405C131.264 91.4405 131.794 91.6411 132.163 92.0425C132.532 92.4438 132.717 92.9093 132.717 93.4391C132.717 93.728 132.452 94.5949 131.922 96.0396C131.393 97.4844 131.128 98.6 131.128 99.3866C131.128 100.125 131.296 100.647 131.633 100.952C131.97 101.257 132.396 101.417 132.91 101.433C133.6 101.433 134.21 100.944 134.74 99.9645L134.86 99.7478V99.194C134.86 99.1458 134.86 99.0736 134.86 98.9773C134.86 98.881 134.868 98.8168 134.884 98.7846C134.9 98.7525 134.908 98.6964 134.908 98.6161C134.908 98.5358 134.916 98.4636 134.932 98.3994C134.948 98.3352 134.972 98.2308 135.004 98.0863C135.037 97.9419 135.061 97.8054 135.077 97.677C135.093 97.5486 135.141 97.3559 135.221 97.0991C135.301 96.8423 135.366 96.5854 135.414 96.3286C135.462 96.0717 135.55 95.7266 135.679 95.2932C136.144 93.4631 136.409 92.4759 136.473 92.3314C136.682 91.898 137.027 91.6813 137.509 91.6813C137.814 91.6813 138.022 91.7615 138.135 91.9221C138.247 92.0826 138.311 92.2351 138.327 92.3796C138.327 92.5883 138.095 93.6156 137.629 95.4617C137.164 97.3078 136.907 98.3673 136.859 98.6402C136.826 98.8168 136.81 99.0977 136.81 99.4829V99.6515C136.81 99.8923 136.834 100.125 136.883 100.35C136.931 100.575 137.083 100.807 137.34 101.048C137.597 101.289 137.958 101.417 138.424 101.433C139.563 101.433 140.47 100.454 141.145 98.4957C141.289 98.1265 141.45 97.6048 141.626 96.9305C141.803 96.2563 141.899 95.7747 141.915 95.4858C141.915 94.956 141.811 94.5387 141.602 94.2337C141.393 93.9287 141.185 93.6718 140.976 93.4631C140.767 93.2544 140.663 93.0297 140.663 92.7889Z" fill="black"/>
<path d="M147.07 95.4569C147.07 95.1845 147.178 94.9462 147.394 94.7419C147.609 94.5376 147.859 94.4298 148.143 94.4184C148.347 94.4184 148.517 94.4865 148.653 94.6227C148.79 94.7589 148.863 94.9292 148.875 95.1334C148.875 95.3945 148.761 95.6328 148.534 95.8485C148.307 96.0641 148.058 96.1776 147.785 96.1889C147.615 96.1889 147.456 96.1322 147.309 96.0187C147.161 95.9052 147.082 95.7179 147.07 95.4569ZM144.295 100.785C144.295 100.695 144.346 100.519 144.449 100.258C144.551 99.9966 144.687 99.7072 144.857 99.3895C145.027 99.0717 145.277 98.7823 145.606 98.5212C145.935 98.2602 146.276 98.1354 146.628 98.1467C147.07 98.1467 147.439 98.2772 147.734 98.5383C148.029 98.7993 148.182 99.1511 148.194 99.5937C148.194 99.7867 148.114 100.104 147.955 100.547C147.797 100.99 147.57 101.586 147.275 102.335C146.979 103.084 146.741 103.725 146.56 104.258C146.503 104.508 146.474 104.69 146.474 104.803C146.474 105.087 146.571 105.229 146.764 105.229C146.866 105.229 146.974 105.212 147.087 105.178C147.201 105.144 147.331 105.064 147.479 104.939C147.626 104.814 147.78 104.616 147.938 104.343C148.097 104.071 148.239 103.736 148.364 103.339C148.398 103.203 148.426 103.123 148.449 103.101C148.472 103.078 148.568 103.067 148.739 103.067C148.966 103.067 149.079 103.123 149.079 103.237C149.079 103.328 149.028 103.504 148.926 103.765C148.824 104.026 148.682 104.315 148.5 104.633C148.319 104.951 148.063 105.234 147.734 105.484C147.405 105.734 147.053 105.859 146.679 105.859C146.316 105.859 145.981 105.739 145.674 105.501C145.368 105.263 145.209 104.9 145.198 104.412C145.198 104.219 145.226 104.037 145.283 103.867C145.339 103.697 145.583 103.05 146.015 101.926C146.446 100.78 146.696 100.093 146.764 99.8661C146.832 99.6391 146.872 99.4178 146.883 99.2022C146.883 98.9298 146.787 98.7936 146.594 98.7936H146.56C146.219 98.7936 145.907 98.9809 145.623 99.3554C145.339 99.7299 145.124 100.207 144.976 100.785C144.965 100.797 144.954 100.814 144.942 100.836C144.931 100.859 144.925 100.876 144.925 100.888C144.925 100.899 144.914 100.91 144.891 100.922C144.868 100.933 144.851 100.939 144.84 100.939C144.829 100.939 144.806 100.939 144.772 100.939C144.738 100.939 144.693 100.939 144.636 100.939H144.397C144.329 100.871 144.295 100.819 144.295 100.785Z" fill="black"/>
<path d="M145 289.127C145 287.04 145.823 285.164 147.47 283.498C149.116 281.833 150.896 281 152.811 281C153.883 281 154.725 281.23 155.338 281.689C155.95 282.149 156.266 282.752 156.285 283.498C156.285 284.053 156.104 284.523 155.74 284.905C155.376 285.288 154.917 285.489 154.361 285.508C153.998 285.508 153.711 285.413 153.5 285.221C153.289 285.03 153.184 284.743 153.184 284.36C153.184 283.977 153.289 283.651 153.5 283.383C153.711 283.115 153.921 282.914 154.132 282.78C154.342 282.646 154.476 282.589 154.534 282.608H154.562C154.562 282.57 154.505 282.512 154.39 282.436C154.275 282.359 154.074 282.283 153.787 282.206C153.5 282.13 153.175 282.091 152.811 282.091C152.236 282.091 151.691 282.225 151.174 282.493C150.772 282.666 150.36 282.962 149.939 283.383C149.097 284.226 148.484 285.413 148.101 286.944C147.718 288.476 147.517 289.586 147.498 290.275C147.498 291.156 147.747 291.816 148.245 292.257C148.666 292.716 149.221 292.946 149.91 292.946H150.025C152.169 292.946 153.94 292.132 155.338 290.505C155.51 290.314 155.625 290.218 155.682 290.218C155.759 290.218 155.883 290.304 156.056 290.476C156.228 290.649 156.324 290.783 156.343 290.878C156.362 290.974 156.276 291.118 156.084 291.309C155.893 291.501 155.615 291.769 155.252 292.113C154.888 292.458 154.457 292.745 153.959 292.975C153.462 293.204 152.849 293.444 152.122 293.693C151.394 293.941 150.628 294.047 149.824 294.008C148.389 294.008 147.23 293.549 146.35 292.63C145.469 291.711 145.019 290.543 145 289.127Z" fill="black"/>
<path d="M160.782 286.265L160.518 286.367C160.329 286.434 160.058 286.502 159.706 286.57C159.354 286.637 158.962 286.685 158.529 286.712H158.143V285.778H158.529C159.165 285.751 159.754 285.649 160.295 285.473C160.836 285.297 161.215 285.135 161.432 284.986C161.648 284.837 161.838 284.688 162 284.54C162.027 284.499 162.109 284.479 162.244 284.479C162.366 284.479 162.481 284.519 162.589 284.6V290.671L162.609 296.762C162.704 296.856 162.785 296.917 162.853 296.944C162.921 296.971 163.083 296.998 163.34 297.025C163.597 297.053 164.017 297.066 164.599 297.066H165.127V298H164.904C164.619 297.959 163.543 297.939 161.675 297.939C159.835 297.939 158.772 297.959 158.488 298H158.244V297.066H158.772C159.07 297.066 159.327 297.066 159.544 297.066C159.76 297.066 159.929 297.059 160.051 297.046C160.173 297.032 160.281 297.012 160.376 296.985C160.471 296.958 160.525 296.944 160.539 296.944C160.552 296.944 160.593 296.91 160.66 296.843C160.728 296.775 160.769 296.748 160.782 296.762V286.265Z" fill="black"/>
<path d="M324 289.021C324 286.962 324.813 285.11 326.438 283.466C328.063 281.822 329.82 281 331.71 281C332.768 281 333.599 281.227 334.204 281.68C334.808 282.134 335.12 282.729 335.139 283.466C335.139 284.014 334.96 284.477 334.601 284.855C334.242 285.233 333.788 285.431 333.24 285.45C332.881 285.45 332.598 285.356 332.39 285.167C332.182 284.978 332.078 284.694 332.078 284.316C332.078 283.938 332.182 283.617 332.39 283.353C332.598 283.088 332.805 282.89 333.013 282.757C333.221 282.625 333.353 282.568 333.41 282.587H333.439C333.439 282.549 333.382 282.493 333.268 282.417C333.155 282.342 332.957 282.266 332.673 282.19C332.39 282.115 332.069 282.077 331.71 282.077C331.143 282.077 330.604 282.209 330.094 282.474C329.697 282.644 329.291 282.937 328.875 283.353C328.044 284.184 327.439 285.356 327.061 286.867C326.683 288.379 326.485 289.475 326.466 290.155C326.466 291.024 326.712 291.676 327.203 292.111C327.619 292.564 328.167 292.791 328.847 292.791H328.96C331.077 292.791 332.824 291.988 334.204 290.382C334.374 290.193 334.487 290.098 334.544 290.098C334.62 290.098 334.742 290.183 334.912 290.353C335.082 290.524 335.177 290.656 335.196 290.75C335.215 290.845 335.13 290.986 334.941 291.175C334.752 291.364 334.478 291.629 334.119 291.969C333.76 292.309 333.335 292.593 332.843 292.819C332.352 293.046 331.747 293.282 331.029 293.528C330.311 293.774 329.555 293.878 328.762 293.84C327.345 293.84 326.201 293.386 325.332 292.479C324.463 291.572 324.019 290.42 324 289.021Z" fill="black"/>
<path d="M335.73 292.028C335.743 291.948 335.763 291.841 335.79 291.708C335.817 291.574 335.897 291.32 336.031 290.946C336.164 290.572 336.298 290.258 336.431 290.004C336.565 289.751 336.785 289.503 337.093 289.263C337.4 289.022 337.707 288.909 338.014 288.922C338.495 288.922 338.896 289.043 339.217 289.283C339.537 289.523 339.738 289.751 339.818 289.964C339.898 290.178 339.938 290.318 339.938 290.385C339.938 290.412 339.945 290.425 339.958 290.425L340.179 290.205C340.994 289.35 341.922 288.922 342.964 288.922C343.686 288.922 344.267 289.103 344.708 289.463C345.148 289.824 345.376 290.352 345.389 291.046C345.402 291.741 345.148 292.79 344.627 294.193C344.106 295.595 343.853 296.444 343.866 296.738C343.866 297.085 343.979 297.259 344.207 297.259C344.287 297.259 344.347 297.252 344.387 297.239C344.774 297.172 345.122 296.918 345.429 296.477C345.736 296.036 345.97 295.502 346.13 294.874C346.157 294.767 346.291 294.714 346.531 294.714C346.798 294.714 346.932 294.767 346.932 294.874C346.932 294.887 346.905 294.987 346.852 295.174C346.745 295.562 346.598 295.943 346.411 296.317C346.224 296.691 345.917 297.065 345.489 297.439C345.062 297.813 344.601 297.993 344.106 297.98C343.478 297.98 343.024 297.8 342.744 297.439C342.463 297.078 342.323 296.704 342.323 296.317C342.323 296.063 342.563 295.261 343.044 293.912C343.525 292.563 343.772 291.547 343.786 290.866C343.786 290.078 343.492 289.684 342.904 289.684H342.804C341.655 289.684 340.686 290.358 339.898 291.708L339.758 291.948L339.097 294.633C338.656 296.384 338.402 297.325 338.335 297.459C338.161 297.82 337.874 298 337.473 298C337.3 298 337.159 297.96 337.053 297.88C336.946 297.8 336.872 297.719 336.832 297.639C336.792 297.559 336.779 297.492 336.792 297.439C336.792 297.265 337.046 296.176 337.554 294.173C338.061 292.169 338.328 291.08 338.355 290.906C338.369 290.839 338.375 290.686 338.375 290.445C338.375 289.924 338.215 289.664 337.894 289.664C337.387 289.664 336.966 290.332 336.632 291.668C336.552 291.935 336.512 292.075 336.512 292.088C336.485 292.169 336.358 292.209 336.131 292.209H335.85C335.77 292.129 335.73 292.068 335.73 292.028Z" fill="black"/>
<path d="M349.016 293.03C349.016 293.03 349.016 292.943 349.016 292.77C349.016 292.596 349.109 292.463 349.297 292.369H360.939C361.14 292.476 361.24 292.609 361.24 292.77C361.24 292.93 361.14 293.064 360.939 293.171H349.297C349.109 293.077 349.016 292.943 349.016 292.77V293.03Z" fill="black"/>
<path d="M367.191 286.197L366.931 286.297C366.744 286.364 366.477 286.431 366.129 286.498C365.782 286.564 365.395 286.611 364.967 286.638H364.586V285.716H364.967C365.595 285.689 366.176 285.589 366.71 285.415C367.245 285.242 367.619 285.081 367.833 284.934C368.046 284.788 368.233 284.641 368.394 284.494C368.42 284.454 368.501 284.434 368.634 284.434C368.754 284.434 368.868 284.474 368.975 284.554V290.545L368.995 296.557C369.088 296.651 369.169 296.711 369.235 296.738C369.302 296.764 369.463 296.791 369.716 296.818C369.97 296.844 370.384 296.858 370.959 296.858H371.48V297.78H371.259C370.979 297.739 369.917 297.719 368.073 297.719C366.256 297.719 365.208 297.739 364.927 297.78H364.687V296.858H365.208C365.501 296.858 365.755 296.858 365.969 296.858C366.183 296.858 366.35 296.851 366.47 296.838C366.59 296.824 366.697 296.804 366.791 296.778C366.884 296.751 366.938 296.738 366.951 296.738C366.964 296.738 367.004 296.704 367.071 296.637C367.138 296.571 367.178 296.544 367.191 296.557V286.197Z" fill="black"/>
</svg>
